/* XPM */
static char *_ac8580e53fa44308538694dff6c2188d9QX12TAO7mmJm1v[] = {
/* columns rows colors chars-per-pixel */
"64 64 39 1 ",
"  c #76BF6E",
". c #7AC267",
"X c #77C169",
"o c #79C268",
"O c #7AC268",
"+ c #F18D2F",
"@ c #F18A32",
"# c #F18D32",
"$ c #F18C33",
"% c #F0893D",
"& c #F19332",
"* c #F6D13D",
"= c #F1D73E",
"- c #F5D53D",
"; c #F5D63D",
": c #F5D73D",
"> c #F6D63D",
", c #81C364",
"< c #C4D747",
"1 c #C5D747",
"2 c #C6D746",
"3 c #C9D646",
"4 c #C0D64A",
"5 c #BE63A6",
"6 c #E86B98",
"7 c #C362A6",
"8 c #E567A3",
"9 c #E867A3",
"0 c #E868A0",
"q c #E868A1",
"w c #439AA7",
"e c #4A9FA2",
"r c #459BA8",
"t c #449AA9",
"y c #469BA8",
"u c #4A9EAB",
"i c #75C2D2",
"p c #78C5D5",
"a c #79C6D6",
/* pixels */
"pppppppiurywytwe ,XXX,X,41431113=>:::>:*&@$+$@+%6069qqq875755755",
"ppppppppuwyyyyyeXXXXXXX,44431111=::::>:*&+$$$$+%6099qqq875555555",
"pppppppiuwyywywe XXXXOX,41111113=:::>>:*&$+$@$$%6969qq8975555775",
"pppppppiuwyywywe ,XX,OX,43111113=:::>>:*&$$$$$+%6999968975555555",
"ppppppppuwrrytteXXX,XOX,41411113=>=>>>>*&@$$$++%6900099975755555",
"pppppppiuwuryyteXOXXOOX,41111113=>>>>>>*&@$+$$+%6900009975555775",
"pppppppiuwytytteXXXOOOX,41111113=>>>>>>*&@+$$++%6900990975555555",
"pppppppiuwtytyteXOOOXOX,43111113=>=*>>=*&@$$$$+%6900000975755755",
"ppppppaiuwrryrreXXXXX,X,42411113=>>=:-:*&%##@$$%6qqqqqq875557557",
"ppppppaiuwrrrryeXX,XOXX,42111113=>----:*&%##$$+%6qqqqqq875555555",
"ppppppaiuwrrrrteXXXOOOX,42111113=--::-:*&$##$++%6qqqqqq875575555",
"ppppppaiuwrrrrteXOOOOOX,42111113=-:---:*&###$$+%68qqqqq875557557",
"ppppppaiuwrrrrteXXXXOOX,42111113=>-:--:*&$$$$$+%69qq009975555575",
"ppppppaiurrrrrteXXXOOOX,42111112=>:-:-:*&$$@$$+%68qq900975555555",
"ppppppaiuwrrrrteXXOOOOX,42421123=>-:--:*&@$@$$+%6qqq900075577557",
"ppppppaiuwrrrrteXOOOOOX,42<<12<3=>:-:-:*&@$$$$+%6qqq009075555555",
"ppppppaiuwrtwrte  OOOO .4<<<<<<2=:-:-::*#@##@#+%69qqqqq875555555",
"ppppppaiuwrrrrte ..OOO.,<2<<<<23=-:-:-:*&@####+%69qqqqq875755775",
"ppppppaiurrrrrre ...O..,43<<2<23=--:-::*&##@#@+%6qqqqqq875755555",
"ppppppaiurrrrrte ...X.X,4<2<<2<2=::-:--*######+%6qqqqqq875555755",
"ppppppaiuwrrrrreXXXOOOX.42<22<<3=:::-:-*&##@@@#%69qqqqq875575555",
"ppppppaiuwrrrrreXO.OOOO,42<<22<3=::::-:*&######%69qqqqq875557557",
"ppppppaiuwrrrrreXOXOOOO,42<<2<<3-::*-::*#@###@+%69qqqqq875555555",
"ppppppaiurrrrrre OO.XOX,4<<<<223=::::-:-&@#@#@+%69qqqqq875575575",
"ppppppaiuwrrrrte OOOXOX,4222<2<3=:-:--:*&#####+%6qqqqqq875575575",
"ppppppaiuwrrrrty OOXOOX.43242<<2-::-:*:*####$$+%6qqqqqq875555555",
"ppppppaiuwyyrrweXOOXOOX,4222<2<3=--:-::*&###@$#%68qqqqq875557557",
"ppppppaiuwrrrrre OOOOOX,42242<<3=---:-:*#@#####%68qqqqq875575555",
"ppppppaiuwurrwre OOOXOO,42<2<<<3=:-:-:-*######&%6qqqqqq875555755",
"ppppppaiuwrryyre OXOOX.,4222<<<3=-:-:-:*#$####&%68qqqqq875755555",
"ppppppaiuwrrwwre OXOOOO,4224<2<3=:-:-:-*&$####&%6qqqqqqq75755775",
"ppppppaiuwrryyre OOXX.X.4222<<<3-::-:-:*&$#$##&%6qqqqqqq75555555",
"ppppppaiurrrrrreXOOXOOX,42411123=-:::*-*&@$+$@+%6q6q900975555555",
"ppppppaiurrrrrreXXOOOOX,42111113=:*:::-*&+$$$$+%6q99000975755775",
"ppppppaiutrrrrreXXXOOOX,421111<3=:::-:-*&$+$@$$%6969098875555555",
"ppppppaiuwrrrrweXXOXOOX,42111123=::::-:*&$$$$$+%6999968875555755",
"ppppppaiuwwurrteXXXXOOX,42112<23-:-:-:-*&@$$$++%6900098975575555",
"ppppppaiuwwwrrtyXXXOOOX,4211<2<2=::-:-:*&@$+$$+%6909009875557557",
"ppppaaaiuwyyrrreXOOOOOO,41412<23=--:-:-*&@+$$++%69q8990975555555",
"ppppaaaiuwywrrreXOOXOOO,4111<<43=::-:-:*&@$$$$+%69q6000975575575",
"ppppppaiuwrrrrreXXOOXOX,411111<3=::::::*&@@@@$$%6qqqqqq875575575",
"ppppppaiuwrrrrreXOXXOOX,41111123=:::*::*&$$@$++%6qqqqqq875555555",
"ppppppaiurrrrrreXXX,OOX,41111113=::*:::*&@$$$$+%6qqqqqq875557557",
"ppppppaiurrrrrwyXXXXOOX,41111112=::::::*&@$$$++%6qqqqqq875575555",
"ppppppaiuwrrwttuXOOXOOX,41111113=::::*:*&@+$&@+%68qq009975555755",
"ppppppaiuwrrtttuXOOOOOX,41111113=*:::::*&@$$@$+%6qqq900975755555",
"ppppppaiuwrruwuuXXXOOOX,44111113=::*::**&@$$$$$%6qqq900875755775",
"ppppppaiurrrrruuXXOOOOX,41111113=::::*:*&@$+$$+%6qqq009875555555",
"ppppppaiuwyywyte X,XOOX,43411113=:-:-::*#@####+%69qqqqq875555555",
"ppppppaiuwyyywte XXOOOX,44111113=-:-:-:*&@#@@@+%69qqqqq875577557",
"ppppppaiuwwwuwteXXX,XOX,41111113=:-:-::*&#####+%6qqqqqq875555555",
"ppppppaiuwyywyteXOXXOOX,43111113-::-:--*####@#+%6qqqqqq875555575",
"ppppppaiuwrrwuweXXXXOOX,41111113=:-:-:-*&####@#%69qqqqq875557557",
"ppppppaiuurrywteXOX,XOX,41411113=-:-:-:*&##@#@#%69qqqqq875575555",
"ppppppaiuwrrrrteXXOOOXX,41111113-:-:-:-*#@####+%69qqqqq875555555",
"ppppppaiuwrrrwteXOXXOOX,41111113=::-:--:&@##@#+%69qqqqqq75557557",
"ppppppaiuwywwuwe OOOXOX,4241<223=-::::**&#####+%6qqqqqq875755755",
"ppppppaiuwyyywteXOXOOOX,422222<3=:*::*-*#####$+%6qqqqqq875555555",
"ppppppaiuwwyytteXXOOOOO,4222<223=:::-::*&###$$#%68qqqqq875555775",
"ppppppaiuwyywwteXOXXXXX,42412<43=::::-:*#@#@@##%68qqqqq875755555",
"ppppppaiuwwyuyteXXXOXOX,42222<23::-:-:-*&@$@##&%6qqqqqq875755555",
"ppppppaiuwuwwwteXOOOOOX,4241<2<3=-:-:-:*&@$$##&%6qqqqqq875555775",
"ppppppaiuwuwwuteXOOOOOX,42<2<<<3=--:-:-*&$#$##&%6qqqqqq875555555",
"ppppaaaiuwwywwteXXOOOOX,4342<<<2=::-:-:*&$####&%6qqqqqqq75755755"
};
