/* XPM */
static char *_cf3463709dc4a9bf94316bfa4cf2d8c[] = {
/* columns rows colors chars-per-pixel */
"64 64 235 2 ",
"   c #160508",
".  c #1C0D15",
"X  c #1D0E19",
"o  c #160C12",
"O  c #1C1216",
"+  c #1E131A",
"@  c #1F191B",
"#  c #0C0409",
"$  c #210E1A",
"%  c #23131B",
"&  c #291817",
"*  c #321D18",
"=  c #25100D",
"-  c #38251C",
";  c #25201F",
":  c #2B1C22",
">  c #271924",
",  c #2D1722",
"<  c #2A2224",
"1  c #392827",
"2  c #332934",
"3  c #3A3235",
"4  c #4B1D1D",
"5  c #432A1E",
"6  c #422C29",
"7  c #46332A",
"8  c #493529",
"9  c #57382C",
"0  c #472F32",
"q  c #4C3A32",
"w  c #463635",
"e  c #523D33",
"r  c #583C39",
"t  c #572829",
"y  c #6A3936",
"u  c #4A423D",
"i  c #554134",
"p  c #5A4334",
"a  c #5A453B",
"s  c #59453B",
"d  c #624C3C",
"f  c #68463D",
"g  c #67513D",
"h  c #74463A",
"j  c #643F42",
"k  c #5A4E4B",
"l  c #564945",
"z  c #5B514B",
"x  c #554A4B",
"c  c #674D47",
"v  c #794A45",
"b  c #6B5644",
"n  c #64544C",
"m  c #6B5648",
"M  c #745D4C",
"N  c #775949",
"B  c #695954",
"V  c #775A54",
"C  c #6B4E51",
"Z  c #7B634E",
"A  c #77614D",
"S  c #6B625C",
"D  c #7C6452",
"F  c #786659",
"G  c #7C6C64",
"H  c #766B67",
"J  c #7C736A",
"K  c #716B67",
"L  c #695E64",
"P  c #BA3E32",
"I  c #874B47",
"U  c #8C5B4D",
"Y  c #86554A",
"T  c #97584B",
"R  c #895B53",
"E  c #935D53",
"W  c #985855",
"Q  c #984A4B",
"!  c #A55857",
"~  c #AE554E",
"^  c #836B54",
"/  c #886758",
"(  c #9A6255",
")  c #986759",
"_  c #8B735D",
"`  c #87715A",
"'  c #96745E",
"]  c #8A614F",
"[  c #AA655C",
"{  c #A36B5D",
"}  c #A7675B",
"|  c #A3715E",
" . c #A75B63",
".. c #976964",
"X. c #877668",
"o. c #937B63",
"O. c #997865",
"+. c #867C77",
"@. c #9B7A77",
"#. c #8F6C6A",
"$. c #AE6C62",
"%. c #A56963",
"&. c #B36C64",
"*. c #B36868",
"=. c #A37363",
"-. c #AC7464",
";. c #AD7C6B",
":. c #A77868",
">. c #B47C6B",
",. c #B57568",
"<. c #A57D78",
"1. c #B87B71",
"2. c #A06671",
"3. c #9C5F60",
"4. c #C37E73",
"5. c #C05647",
"6. c #9C836B",
"7. c #978168",
"8. c #8B837A",
"9. c #978677",
"0. c #9C927C",
"q. c #A6856C",
"w. c #B4836E",
"e. c #B9836E",
"r. c #A68C72",
"t. c #A88A75",
"y. c #B48472",
"u. c #BB8572",
"i. c #BC8A75",
"p. c #BB8D7A",
"a. c #B58977",
"s. c #A3987F",
"d. c #A89479",
"f. c #BD927D",
"g. c #B5997C",
"h. c #A9906F",
"j. c #BFA07E",
"k. c #C38A79",
"l. c #C1937E",
"z. c #C4987B",
"x. c #CC846C",
"c. c #C0A17F",
"v. c #947F86",
"b. c #8C8483",
"n. c #978A85",
"m. c #9C9287",
"M. c #9C8C92",
"N. c #A59A82",
"B. c #A99D84",
"V. c #A7998A",
"C. c #B89983",
"Z. c #A69D94",
"A. c #AB9190",
"S. c #ADA28A",
"D. c #B7A48B",
"F. c #ADA49A",
"G. c #A8A197",
"H. c #B1A69C",
"J. c #B3A99E",
"K. c #B7AA94",
"L. c #BCB29A",
"P. c #B5ACA2",
"I. c #B9AEA2",
"U. c #B2AAA5",
"Y. c #BCB2A5",
"T. c #BEB5A9",
"R. c #BAB4AB",
"E. c #B3AEAA",
"W. c #A798AC",
"Q. c #C39682",
"!. c #C49A83",
"~. c #CA9D84",
"^. c #C79C89",
"/. c #CB9F90",
"(. c #CCA38A",
"). c #C7A489",
"_. c #D2A58B",
"`. c #D5A98D",
"'. c #D7AA8C",
"]. c #CAAB92",
"[. c #D5AC93",
"{. c #C8B69B",
"}. c #D7B499",
"|. c #E6B998",
" X c #C2B5A4",
".X c #C5BBA3",
"XX c #C1B6A9",
"oX c #C3BBAD",
"OX c #CAB9A5",
"+X c #D3B8A3",
"@X c #C6BEB1",
"#X c #C9BEBA",
"$X c #C8B1AA",
"%X c #E0BFA8",
"&X c #F0C19D",
"*X c #CDC3AD",
"=X c #D2C3AB",
"-X c #C7C0B1",
";X c #CBC3B5",
":X c #CEC5B9",
">X c #CFC8B9",
",X c #C5C1BB",
"<X c #D1C6BA",
"1X c #D3CBBC",
"2X c #D7CAB7",
"3X c #DBD1BD",
"4X c #E2C7AF",
"5X c #D5CEC1",
"6X c #D5CDC6",
"7X c #D7D0C1",
"8X c #DAD3C4",
"9X c #DDD7C9",
"0X c #DDD8D5",
"qX c #CEC7C3",
"wX c #E2DCCD",
"eX c #E5D7C4",
"rX c #E4DDD1",
"tX c #E4DDDA",
"yX c #F1DDCB",
"uX c #EAE3D4",
"iX c #ECE5DA",
"pX c #EAE4D8",
"aX c #F3ECDC",
"sX c #F3E8D6",
"dX c #F4EBD6",
"fX c #ECEAE7",
"gX c #F4EDE1",
"hX c #F1EEEC",
"jX c #F7F1E3",
"kX c #F8F5EA",
"lX c #F5F4F3",
"zX c #F8F6F4",
"xX c #FAFAF5",
"cX c #FCFCFC",
"vX c #F7F9F8",
/* pixels */
"J.I.I.I.I.Y.R.R.R.XXoXoX#XoX#X@X-X-X:X:X:X;X:X:X:X:X:X:X:X:X:X;X;X;X#X;X;X#X;X#X-X;X#X#X@X@X@XoX@XoXoXoXoXoXXXXXXX XY.Y.I.Y.I.I.",
"J.J.J.I.I.Y.I.$XXXoXoXoXoX#X;X;X:X;X:X:X;X;X:X:X#X;X:X;X:X:X:X,X<X;X:X:X;X:X;X-X-X#X-X-X-X@XoX@XoXoXoXoXoX.XoXT.XXY. XY. XI.I.I.",
"H.J.J.I.I.I.Y.Y.R.oXoXoX@X#X;X;X:X-X:X:X<X:X:X:X<X:X:X:X:X:X:X<X:X:X;X:X:X;X;X;X-X:X-X#X@X@XoXoXoXoXoXoXXXXXXXXXXX XY.I.I.I.I.I.",
"H.H.I.I.E.I.Y.XXXXoXoXoX@X;X;X;X;X:X:X:X<X<X<X:X:X:X:X:X:X:X:X<X:X:X:X:X:X:X;X;X;X;X-X-X-X@X@X@XoXoXoXXXoXXXT.T.T.Y.Y.Y.I. XI.I.",
"J.J.I.I.I.I.I.Y.T.oXoXoX@X;X;X;X:X<X:X<X<X<X>X>X:X<X<X<X<X<X>X<X:X:X:X<X#X:X:X-X;X-X:X;X,X@X@X@XoXoXXXoXXXXXT.T. XY.Y.Y. XL.J.I.",
"J.J.J.I.I.I.R.R.T.T.oXoX@X;X;X<X:X<X<X:X<X<X5X>X>X<X1X>X5X>X>X>X>X:X<X>X:X;X:X:X:X;X;X-X-X@X-X@X@XoX@XoXoXoXT.T.T.Y.Y.I.I.I.I.I.",
"H.J.H.J.J.I.I.$XR.T.oX#X#X:X:X<X<X<X>X>X>X5X>X>X1X1X1X1X<X>X>X>XqX>X>X>X>X:X:X:X:X;X;X;X;X;X-X-X@X@X@XXXoXoXT.T.Y.Y.I.Y.L.I.I. X",
"H.H.H.J.J.I.I.E.R.R.XXoX@X:X;X<X<X1X>X>X5X>X1X1X3X>X1X1X>X5X5X1X1X1X>XqX>X:X<X:X:X:X:X;X;X;X-X-X@X@X@XoXoXT.T.oXT.T. XY.Y.I.I.J.",
"F.F.J.J.P.J.P.R.R.XXoXoX-X:X:X<X>X1X1X>X1X5X5X1X1X1X1X1X5X3X1X1X1X1X1X1X1X1X>X>X>X>X:X:X;X;X;X-X;X@X@XoXoXoX.XT.XXY.Y.Y.Y.L.Y.Y.",
"F.F.G.F.F.J.J.P.Y.R.R.oX-X:X:X>X1X>X1X3X3X5X1X3X3X3X7X7X1X1X7X1X7X1X1X5X1X1X1X1X>X>X>X:X>X;X;X;X;X-X@X@XoX-XT.oXXXT.T.Y.Y.Y.T.L.",
"F.F.F.F.F.F.J.P.I.I.R.#X#X;X:X<X>X3X3X1X1X3X:X3X7X7X7X7X1X7X3X3X3X5X1X7X1X3X1X1X1X>X>X:X:X,X;X-X-X;X-X@X-XoXoXoXoXT.T.Y.Y.Y.Y. X",
"F.F.G.F.J.F.J.P.P.R.XXoX@X:X>X7X3X7X:X2X5X:XC.}.+XOX3X8X7X3X3X3X7X7X3X7X7X1X1X1X1X1XqX>X>X>X>X>X;X:X;X-X@X@XoXoXoX.XoXT..XXXT.T.",
"J.F.F.F.F.F.J.F.P.P.Y.R.oX#XY.K.{.D.OX@X:XD.h.).).j.].2X.X=X3X3X1X8X2X4X7X8X7X8X7X7X8X3X1X7X1X>X:X:X;X-X-X-X-XoX-XT.T.T.T..XT.T.",
"J.F.F.G.F.F.J.J.J.J.J.Y.oXL.d.7.X._ d.OXD.D.g.g.).).j.L.g.).eX=X=X=XB.h.=X3X3XeX9X9X8X8X7X7X5X1X>X:X:X:X;X-X-X-X-XoX-X.XoXT.T.XX",
"J.J.F.F.F.F.F.J.J.J.P.F.S.o._ _ M N 6.B.r.g.g.r.D.d.j.c.g.).=X{.{.C.o.B.K.].OXwX9X9X9X8X8X7X7X3X>X:X:X;X;X;X-X-XoXoXT.oXT.oXoX.X",
"J.F.G.G.G.G.G.G.G.G.V.o.^ c X.b i M t.r.o.' h.h.g.h.h.h.j.D.{.}.D.o.o.d.O.d.D.OXwX9X9X8X8X8X7X1X1X>X:X;X;X*X-X-X-X@X-XoX-XoXoXoX",
"L.H.G.Z.Z.G.G.G.F.m.7.b g s F g 8 M B.6.A A h.g.g.h.7.o.g.D.{.).B._ ^ ^ _ h.D..XwXwX9X8X9X7X7X7X1X1X>X>X>X;X;X-X-X-XoXoXoXoXoX.X",
"Y.P.F.Z.m.8.+.J J X.J n A s b A 8 g s.7.b A 7.g.g.g.7.6.h.).D.d.o.D D M 7.h.].}.*X9XwXwX9X8X7X7X3X>X>X>X;X;X-X;X-X-X-X-XoXoXT.-X",
"-XT.T.8.u u u l m F n d m m s m i i 7.7.d A ^ q.h.).h.7.h.g.g.r.Z D b Z o.g.'.{.=XwXwXwX9X8X8X7X7X1X1X>X>X>X;X;X-X-X-XoX-XoX-X-X",
"-X>XK.u u u z z G F B n 8 s i g g i Z ` g ^ ` 6.h.g.h.6.6.d.h.D A A g D q.j.c.c.{.*XwXwX9X8X8X7X7X5X5X>X>X>X;X;X-X-X-XoXoXoXoX.X",
"3X*Xz u u l l K X.B m m q i q g b p Z Z g A ` g.h.h.7.o.7.h.o.M b p g ` z.h.h.j.g.D.wXwX9X8X8X7X5X1X1X>X>X>X;X;X-X-X-X-X-X-XoX-X",
">XK u l z u z G b c k s 8 q e i b i M A i d A o.7.q.o.' 7.o.` b i 8 g h.o.o.h.h.g.D.3XwX8X8X8X7X1X1X>X>X>X>X;X-X-X-XoXoXT.-X-XoX",
"J u l l l z F F e s s e 7 6 q 8 i d d b 8 p b o.6.j.6._ o.` Z p 9 p _ ' ` ` _ o.7.s.>XwXwXeX*X*X*X*X>X*X;X-X-X-X-X-X-XoX-XoXoX-X",
"u z l z z A J B l l e q 3 6 5 8 8 i i g 8 g b ` q.j.q.` ^ Z g - 9 A ^ Z ` D Z ^ o.7.{.8XeX3X*X.XL.L.L.Y.*X*X*X*X-X-X-XoXT.oX.X-X",
"z z x z n B V B c q 8 7 6 1 1 7 5 5 8 q 8 8 A Z 7.7.Z Z ^ g 7 8 g g m m M A b A ^ 9.C.=X=XS.S.K.S.S.N.s.0.0.0.S.L.-X*X*X*X-X*X>X",
"z z x S F B B k z 8 q 7 1 - * - 8 5 1 5 8 8 b D ` Z g b N q 7 8 i p s b M A m B ` o.6.D.S.*X=X=X*X.X.X.XL.L.N.9.X.X.8.9.0.s.N.S.",
"z l S S G B c m n q q 1 6 3 & * 5 - - - - 8 i A ^ g b ^ b 9 q r i g d i m ` A m b M o.r.{.*XL.S.S.S.N.S.S.K.L..XL.K.N.0.8.8.8.7.",
"l S K J X.B n k c i q 1 w 7 * & * ; - - - 5 5 i g g ^ ' N N c n A Z A M F m d q p M D d.].K.S.S.S.N.S.S.N.N.s.N.S.K.L.L.L..X.X.X",
"S S K X.J S B s r s 8 8 w 7 & & & & * - 5 * = 5 g ] q.a.' ) ] / .._ ` Z b q 8 i g A _ ;.5.x.S.N.N.s.B.B.N.B.B.N.s.s.0.s.s.s.s.D.",
"S S K K 8.7.X.G n e 6 7 1 - * = = = * = - 8 9 h ( q.y.h.| ) ) ' O.` N c s s d M Z ^ ) >.5.P {.*X.XL.S.N.N.N.B.N.s.s.s.s.s.s.L..X",
"S S S +.>XS.7.J G M s 7 1 * * = = = & * 9 h Y ] | | | | =.-.:.O.' O.:.O./ A M A ] ' | k./.[ ).9X3X3X3X*X.XS.s.s.s.s.s.N.K.L.K.S.",
"K S +.lXuXS.0.7.D B c i 1 * * & & * 5 p h ] T ( | { ) | :.q.;.;.>.p.f.w./ N A ] ' { T T ~ ,.!.8X1X1X3X3X3X3X*XL.L.S.L.L.L.K.L.>X",
"L J fXcXhX9XF.q.O.` ` D r 1 , 4 t 9 h Y Y ( } { { { %.:.y.a.w.y.p.C.C.i.=.) A R =.;.[ T Q T 4.6XwXeX8X6X7X1X7X8X3X*X-XT..X>X>X1X",
"J tXcXvXcXcXxXtX XOX XB.X.l j v Y Y Y T T ( ( ( { { ..:.C./.)./.Q.f.Q.i.y.t.:.O.q.k.%.! Q.k.Q.3XuXrXwXrXwXwX8X8X7X7X7X7X7X7X9XpX",
"tXcXcXcXlXfXzXcXiXtXrX6X9.H M.M.) ] U T ( ( ) { ) R ) :.;.y.i.!.!.C.^.p.p.C.C.^.C.1.&.;.p.Q.Q.eXuXrXuXuXuXrXrXwXwXwXwXrXwXpXaXjX",
"cXcXfXrXeXsXcXcXcXcXlX#XV H W.M.O.( ( ( ] ( { Y v ) / R N E | w.Q./.^.C.C.^.^.].!.y.y.>.,.-.$XsXuXyXrXuXuXuXuXuXpXuXpXiXaXgXkXxX",
"0X7X3X4XeXgXcXlXpXlX<XX.l v.W.M.@...E ( ( %.E Y ) j q r R $.>.>.u.Q.^./.^.)./.]./.a.1.y.z.3XsXsXuXuXuXuXuXrXuXuXiXiXiXgXgXjXkXxX",
"pXpX2XfXcXcXcX0XOXV.D G / v.M.M.n.W Y U ( ( %.-.v 6 r R $.&.>.1.u.k.Q.^._./.).].].Q.a. XeXuXaXaXaXsXsXuXuXuXuXuXiXiXiXaXgXgXkXkX",
"cXkXxXcXcXcXcXzX9XK.oX9X@XM.A.v.B r v v U ( ,.%.U Y E W [ ,.k.k.Q.k.p.l.^.[.[.].+X].C.g.uXcXxXxXkXjXaXdXuXuXuXuXuXuXuXiXaXgXaXjX",
"cXcXcXcXzXcXcXzX<XkXcXcXcX#X+.m v R v a f ( [ } [ [ [ [ *.4.k.l.Q.k.k.k.u.l.^./.}.+X+X2XzXcXcXcXcXcXxXkXaXiXuXuXuXuXpXpXuXuXiXaX",
"cXcXcXcXcXvXcXcXcXcXvXcXxXK.V Y v 6 q r r 3.*.,.&.$.$.&.$.$.$.[  . .3.-.-.-.w.z.).}.+X%XjXcXcXcXvXcXcXcXxXkXaXuXrXuXrXuXuXuXuXuX",
"cXcXvXcXcXcXvXcXcXcXcXkXjX9.Y c 1 & 1 v v <.$.,.&.&.,.*.$.! ! Y R v I >.>.,.w.u.l.).}.}.}.jXvXcXcXcXvXcXcXcXxXjXdXuXrXuXrXrXrXrX",
"vXvXcXcXcXcXcXvXxXkXjXdXdX+XN c c v v I ..<.! [ &.*.*.*.x.4.>.@.C v W 1.>.>.w.u.u.C.).}.[.}.*XU.fXcXcXcXxXcXcXcXkXjXiXuXuXrXrXrX",
"cXcXcXvXvXcXtX9XjXsXdXaXdXkX5X#.....) E E =.! [  .&.*.k.k.).:.y 4 I 3.1.e.>.w.y.u.i.C.].[.(.%XoX8.Z.tXcXcXvXcXcXcXvXkXjXdXuXuXuX",
"cXcXvXcXcX6XH.uXuXuXjXkXzXcXcXH.@.<.3.) E W I W ! f.C.].C.=.Q j I Q 2.y.u.e.e.e.y.y.p.).).].(.yXvXR.J U.cXcXcXcXcXcXcXcXxXkXjXaX",
"cXcXcXcX#X0.8XuXsXjXxXcXcXcXcXqX<.=.) E I I I =.y.p.^.2.3.3.<.T Q  .*.u.u.e.e.e.u.y.a.!.(.~.(._.aXcXfXM.b.fXcXvXxXvXcXcXvXcXcXxX",
"lXcXxXY.+.I.uXuXjXcXcXvXcXcXcXhXA...Y t y ( :.d.C...I W A.A. .Q  .*.1.1.u.u.e.e.e.y.i.z.(.(.c.~.[.hXcXcX6Xm.6XcXcXcXvXcXvXcXvXvX",
"rXwXV.8.n.eXuXjXzXcXcXcXcXcXvXtXA.Y h t t v t.R v Y @.C.;.! Q  .1.*.1.u.k.k.u.u.y.y.i.g.!.(.~.!.~.4XcXcXcXlXU.m.0XcXcXcXcXcXcXcX",
"J.+.8.+.J.uXjXxXcXcXcXvXcXcXtXXX@.v v y t 4 y y R <.<.! ~ Q  .*.,.,.,.u.i.z.x.i.u.y.i.f.z.(.(.l.Q.~.eXcXvXcXcX6X+.+.E.0XtX0XR.Z.",
"8.8.8.b.9XaXxXcXxXcXcXvXcXlX0XD.#.) I I h t 4 y Y W Q ! ! [ *.*.&.&.,.e.e.k.i.i.i.i.p.p.l.!._.!.f.!._.yXvXcXvXcXlXU.S n z x u u ",
"b.b.+.G.dXjXcXcXcXcXcXcXcXlX$XR c E E I Q W W R W ! ! ! ! ! [ [ &.$.&.e.x.i.i.e.i.i.i.i.p.!.).(.f.f.z.'.OXfXcXvXvXcXlX:XZ.J S B ",
"b.b.J :XkXcXxXvXcXxXcXxXcX<XG C j c R E U ) 2.2. .! ! ! ! ! [ $.$.$.,.x.u.i.i.e.i.k.i.k.p.l.~._.^.f.f._.[.@.0XcXcXvXcXcXcXvXhXtX",
"b.8.n.iXxXcXcXcXcXcXvXcX0XG z l r e v t.<.#.#.3.W Q W ! %.%.[ [ $.&.,.x.e.e.e.e.e.i.i.i.p.f.!.).(.l.p.p.'.).C P.zXcXcXvXvXcXcXcX",
"b.J E.cXvXcXvXcXcXcXcXjX@.n w 1 0 w a D.A.2.V V v R %.%.:.{ } ( } $.,.-.>.e.e.e.e.k.i.i.i.p.f.~.`.~.p.f.f.|.9.0 v.qXhXcXcXcXcXcX",
"b.J fXcXvXcXcXcXcXvXcXH.S u 3 < < 1 r ].$X/ C c j j R 2.%.( ( ( ( ( ( | -.-.-.w.e.i.i.i.i.p.l.l.(.'.!.p.l.z.|.m 1 F b.H.#X0XlXcX",
"8.Z.vXvXcXcXcXcXcXcX5XG z 3 1 @ % > 1 $X#XC j l r 0 0 C R Y U E ] U U ] ( | -.-.w.e.w.i.i.p.p.g.!.[.`.l.f.f.(.`.6 1 C H X.J S G ",
"8.6XcXvXcXcXcXcXcXlX9.B w 2 ; @ + + < T.qXC C x w 0 1 : > , 6 9 h ] U E ( { | | :.;.w.w.a.y.y.p.f.~.[._.l.l.l.'.Q.= * w n J +.X.",
"U.cXcXcXcXvXcXcXcXI.S x w < @ + + + o Z.#Xx w 0 2 1 < : > > $ % & : 8 r g Y ] ) | =.:.;.w.y.a.y.a.l._.`.(.~.Q.~.|.:.= * - 1 l L ",
"hXcXvXcXzXcXcXcXtXG n w 1 ; @ . X X X b.k 2 2 2 > > % % % + % % % , % % * 6 8 p m R ..=.:.w.y.w.y.u.l.'.'._.~.~.^.|.)   * * * 5 ",
"cXvXcXtXtXcXvXcXqXn u 3 ; ; O . X # x L 2 2 > > > . $ % $ $ . % $ & , @ % , , - 6 a N / ' :.q.;.>.y.u.Q.`._.~.Q._._.|.)   = * = ",
"cXcXtXH.zXcXvXcX0Xx u < ; @ o o o + K 2 2 2 > > + X . % $ . . $ % $ % % % , , : 1 0 a N E ' =.;.;.w.w.y.~.`.`._._._.'.&X] # = = ",
"tXqXm.qXcXcXzXzXpXz < < @ O o X # 2 L 2 2 2 > > + X . . $ X   X X X . $ $ % $ @ > : 0 c N R | =.:.;.w.y.k.~.`.[.~._.'.'.&X)     ",
"n.m.#XvXcXlXhX0XtXS ; ; @ X O o # 2 x 2 2 2 $ $ X o o X $ $ $ = . . o X O . % O % + ; 0 c v U | =.;.;.y.y.l._.'._._.'.'.'.&X| * ",
"F.5XcXcXcXfXiX6XtXJ O @ O O o o o > C 2 2 > > $ X $ < > > % $ $ X X . X $ O O $ % X X > 2 C N Y | =.;.w.u.k.k.~._._._.'.'.'.&Xz."
};
